<svg width="800" height="800" viewBox="0 0 800 800" fill="none" xmlns="http://www.w3.org/2000/svg">
<path d="M402.25 338.063C304.687 334.563 224.062 398.125 205.062 525.188C185.937 653 247.312 777.563 400.437 774.75C563.187 771.813 613.375 639.437 591.812 516.875C567.187 377.625 485.75 341.125 402.25 338.063Z" fill="#FFBE1F"/>
<path d="M159.562 148C153.875 140.688 185.187 123.813 218.187 122.875C259.625 121.688 297.625 132.688 297.625 132.688C297.625 132.688 301.062 105.438 279.187 74.9375C264.187 54 257.375 43.625 257.812 36.1875C258.25 28.6875 290.75 24.125 334.062 43.4375C370.25 59.5625 398.375 90.3125 398.375 90.3125C398.375 90.3125 421.25 58.3125 451.375 42.875C486.375 25 529.25 21.9375 533 29C535.875 34.375 522.25 50.125 513.312 70.375C499.25 102.125 500.062 128.313 500.062 128.313C500.062 128.313 529.187 107.063 560.437 100.813C576.312 97.625 623.125 94.75 620 106.188C619.5 108 539.5 164.188 539.5 164.188L527.562 222.625C527.562 222.625 570 198.375 607.812 202.813C627.375 205.125 624.125 211.25 624.125 211.25L533.375 262.75L519.875 307.313C519.875 307.313 545.312 300.938 570.062 300.625C582 300.5 601.562 303.625 602.5 309.688C603.75 317.5 547.812 345.125 547.812 345.125L397.25 406.125L254.312 354.375C254.312 354.375 190.125 344.25 190.125 337.25C190.125 330.188 202.937 324.688 222.187 321.688C244.437 318.188 267.312 319.438 267.312 319.438L201.25 275.625C201.25 275.625 160.625 271.813 157.125 263.875C153.625 255.938 175.375 241.438 188.687 237.563C222.375 227.688 260.75 235.563 260.75 235.563L239.062 177.5C238.937 177.313 165.75 155.938 159.562 148Z" fill="#2F7C31"/>
<path d="M339.75 209.937C343.125 211.625 351.875 190.875 362.687 177.562C378.437 158.125 398.937 143.562 402.5 143.562C405.937 143.562 422 155.75 435.937 172.437C452.812 192.687 460.375 209.625 462.062 210.437C468.312 213.5 488.562 177.812 527.562 147.687C561.25 121.625 617.187 98.3125 620.125 106.187C621.062 108.75 592.375 127.625 564.875 165.875C534.687 207.812 537.625 253 537.625 253C537.625 253 572.187 228.187 583.312 222.437C592.625 217.625 627.937 204.062 623.937 211.625C621.062 217 587.312 250.625 567.937 269.062C537.437 297.937 528.437 341 531.375 343.437C534.75 346.25 557.437 329.437 571.125 321.75C584.125 314.437 602.5 308.5 602.375 309.75C601.562 318.938 568.437 342.812 545.125 363.75C527.875 379.187 494.5 423.25 399.437 421.688C320.875 420.438 274.937 379.312 246.312 363.937C226.562 353.312 189.812 341.437 190.25 337.812C190.5 335.812 207.75 334.438 219.375 335.875C251.5 339.75 272.125 349.437 274.312 346.625C276.562 343.75 245.875 304.875 192.875 281.25C167.312 269.812 156.125 266.875 156.625 261.75C156.812 259.5 172.812 256.562 193.187 255.875C229.312 254.687 263.687 267.437 266.875 267.812C274.375 268.75 244.062 216.187 226.875 195.687C199.625 163.125 157.125 154.437 158.875 146.25C159.812 141.812 209.312 141.187 249.937 156.437C292.25 172.187 332.437 206.312 339.75 209.937Z" fill="#709921"/>
<path d="M402.375 239C398.563 239.5 383.5 247.625 363.688 268.438C340.25 293 332 319.562 337.438 324.062C344.75 330.062 354.938 318.625 368.938 308.75C385.438 297.125 398.813 290.813 401.688 290.813C404.563 290.813 417.438 298.938 428.25 307.125C441.688 317.375 453.313 328.438 459.25 324.688C469.25 318.5 455.375 286.125 439.75 268.438C423.125 249.563 405.688 238.563 402.375 239Z" fill="#2F7C31"/>
<path d="M296.188 488C283.52 488.806 271.679 494.571 263.232 504.048C254.785 513.524 250.413 525.947 251.063 538.625C251.063 541.94 252.38 545.12 254.725 547.464C257.069 549.808 260.248 551.125 263.563 551.125C266.879 551.125 270.058 549.808 272.402 547.464C274.746 545.12 276.063 541.94 276.063 538.625C275.423 532.575 277.168 526.513 280.925 521.728C284.683 516.943 290.159 513.812 296.188 513C302.218 513.812 307.694 516.943 311.451 521.728C315.209 526.513 316.954 532.575 316.313 538.625C316.313 541.94 317.63 545.12 319.975 547.464C322.319 549.808 325.498 551.125 328.813 551.125C332.129 551.125 335.308 549.808 337.652 547.464C339.996 545.12 341.313 541.94 341.313 538.625C341.964 525.947 337.592 513.524 329.145 504.048C320.698 494.571 308.857 488.806 296.188 488Z" fill="#E68721"/>
<path d="M503.063 488C490.395 488.806 478.554 494.571 470.107 504.048C461.66 513.524 457.288 525.947 457.938 538.625C457.938 541.94 459.255 545.12 461.6 547.464C463.944 549.808 467.123 551.125 470.438 551.125C473.754 551.125 476.933 549.808 479.277 547.464C481.621 545.12 482.938 541.94 482.938 538.625C482.298 532.575 484.043 526.513 487.8 521.728C491.558 516.943 497.034 513.812 503.063 513C509.093 513.812 514.569 516.943 518.326 521.728C522.084 526.513 523.829 532.575 523.188 538.625C523.188 541.94 524.505 545.12 526.85 547.464C529.194 549.808 532.373 551.125 535.688 551.125C539.004 551.125 542.183 549.808 544.527 547.464C546.872 545.12 548.188 541.94 548.188 538.625C548.839 525.947 544.467 513.524 536.02 504.048C527.573 494.571 515.732 488.806 503.063 488Z" fill="#E68721"/>
<path d="M459.438 629.5C456.123 629.5 452.944 630.817 450.6 633.161C448.255 635.505 446.938 638.685 446.938 642C446.938 653.106 442.527 663.757 434.674 671.61C426.821 679.463 416.169 683.875 405.063 683.875C393.958 683.875 383.306 679.463 375.453 671.61C367.6 663.757 363.188 653.106 363.188 642C363.188 638.685 361.872 635.505 359.527 633.161C357.183 630.817 354.004 629.5 350.688 629.5C347.373 629.5 344.194 630.817 341.85 633.161C339.505 635.505 338.188 638.685 338.188 642C338.188 659.736 345.234 676.746 357.776 689.288C370.317 701.829 387.327 708.875 405.063 708.875C422.8 708.875 439.81 701.829 452.351 689.288C464.893 676.746 471.938 659.736 471.938 642C471.938 638.685 470.622 635.505 468.277 633.161C465.933 630.817 462.754 629.5 459.438 629.5Z" fill="#E68721"/>
</svg>
